<mxfile host="app.diagrams.net" agent="Mozilla/5.0 (Windows NT 10.0; Win64; x64) AppleWebKit/537.36 (KHTML, like Gecko) Chrome/128.0.0.0 Safari/537.36 OPR/114.0.0.0 (Edition std-1)" version="26.0.15">
  <diagram name="Page-1" id="085TVzy6ckruq_tsvycr">
    <mxGraphModel dx="1158" dy="711" grid="1" gridSize="10" guides="1" tooltips="1" connect="1" arrows="1" fold="1" page="1" pageScale="1" pageWidth="827" pageHeight="1169" math="0" shadow="0">
      <root>
        <mxCell id="0" />
        <mxCell id="1" parent="0" />
        <mxCell id="S0uWu8Ou7XAk0CnYKz6p-1" value="" style="fontStyle=1;align=center;verticalAlign=middle;childLayout=stackLayout;horizontal=1;horizontalStack=0;resizeParent=1;resizeParentMax=0;resizeLast=0;marginBottom=0;" vertex="1" parent="1">
          <mxGeometry x="144" y="310" width="200" height="86" as="geometry" />
        </mxCell>
        <mxCell id="S0uWu8Ou7XAk0CnYKz6p-2" value="&amp;lt;&amp;lt;requirement&amp;gt;&amp;gt;" style="html=1;align=center;spacing=0;verticalAlign=middle;strokeColor=none;fillColor=none;whiteSpace=wrap;spacingTop=3;" vertex="1" parent="S0uWu8Ou7XAk0CnYKz6p-1">
          <mxGeometry width="200" height="16" as="geometry" />
        </mxCell>
        <mxCell id="S0uWu8Ou7XAk0CnYKz6p-3" value="pressure" style="html=1;align=center;spacing=0;verticalAlign=middle;strokeColor=none;fillColor=none;whiteSpace=wrap;fontStyle=1" vertex="1" parent="S0uWu8Ou7XAk0CnYKz6p-1">
          <mxGeometry y="16" width="200" height="18" as="geometry" />
        </mxCell>
        <mxCell id="S0uWu8Ou7XAk0CnYKz6p-4" value="" style="line;strokeWidth=0.25;fillColor=none;align=left;verticalAlign=middle;spacingTop=-1;spacingLeft=3;spacingRight=3;rotatable=0;labelPosition=right;points=[];portConstraint=eastwest;" vertex="1" parent="S0uWu8Ou7XAk0CnYKz6p-1">
          <mxGeometry y="34" width="200" height="8" as="geometry" />
        </mxCell>
        <mxCell id="S0uWu8Ou7XAk0CnYKz6p-5" value="text=&quot;The system shall meaasure water pressure&quot;" style="html=1;align=left;spacing=0;verticalAlign=middle;strokeColor=none;fillColor=none;whiteSpace=wrap;spacingLeft=10;" vertex="1" parent="S0uWu8Ou7XAk0CnYKz6p-1">
          <mxGeometry y="42" width="200" height="28" as="geometry" />
        </mxCell>
        <mxCell id="S0uWu8Ou7XAk0CnYKz6p-6" value="Id=&quot;R-1.2.2&quot;" style="html=1;align=left;spacing=0;verticalAlign=middle;strokeColor=none;fillColor=none;whiteSpace=wrap;spacingLeft=10;" vertex="1" parent="S0uWu8Ou7XAk0CnYKz6p-1">
          <mxGeometry y="70" width="200" height="16" as="geometry" />
        </mxCell>
        <mxCell id="S0uWu8Ou7XAk0CnYKz6p-7" value="" style="html=1;align=center;spacing=0;verticalAlign=middle;strokeColor=none;fillColor=none;whiteSpace=wrap;" vertex="1" parent="S0uWu8Ou7XAk0CnYKz6p-1">
          <mxGeometry y="86" width="200" as="geometry" />
        </mxCell>
        <mxCell id="S0uWu8Ou7XAk0CnYKz6p-8" value="&amp;lt;&amp;lt;requirement&amp;gt;&amp;gt;&lt;br&gt;Collect data" style="shape=rect;html=1;whiteSpace=wrap;align=center;" vertex="1" parent="1">
          <mxGeometry x="324" y="190" width="120" height="60" as="geometry" />
        </mxCell>
        <mxCell id="S0uWu8Ou7XAk0CnYKz6p-9" value="" style="rounded=0;html=1;labelBackgroundColor=none;endArrow=none;edgeStyle=elbowEdgeStyle;elbow=vertical;startArrow=sysMLPackCont;startSize=12;entryX=0.5;entryY=0;entryDx=0;entryDy=0;" edge="1" parent="1" source="S0uWu8Ou7XAk0CnYKz6p-8" target="S0uWu8Ou7XAk0CnYKz6p-2">
          <mxGeometry relative="1" as="geometry">
            <mxPoint x="294" y="310" as="targetPoint" />
          </mxGeometry>
        </mxCell>
        <mxCell id="S0uWu8Ou7XAk0CnYKz6p-10" value="" style="rounded=0;html=1;labelBackgroundColor=none;endArrow=none;edgeStyle=elbowEdgeStyle;elbow=vertical;startArrow=sysMLPackCont;startSize=12;entryX=0.5;entryY=0;entryDx=0;entryDy=0;" edge="1" parent="1" source="S0uWu8Ou7XAk0CnYKz6p-8" target="S0uWu8Ou7XAk0CnYKz6p-12">
          <mxGeometry relative="1" as="geometry">
            <mxPoint x="524" y="310" as="targetPoint" />
          </mxGeometry>
        </mxCell>
        <mxCell id="S0uWu8Ou7XAk0CnYKz6p-11" value="" style="fontStyle=1;align=center;verticalAlign=middle;childLayout=stackLayout;horizontal=1;horizontalStack=0;resizeParent=1;resizeParentMax=0;resizeLast=0;marginBottom=0;" vertex="1" parent="1">
          <mxGeometry x="418" y="310" width="200" height="86" as="geometry" />
        </mxCell>
        <mxCell id="S0uWu8Ou7XAk0CnYKz6p-12" value="&amp;lt;&amp;lt;requirement&amp;gt;&amp;gt;" style="html=1;align=center;spacing=0;verticalAlign=middle;strokeColor=none;fillColor=none;whiteSpace=wrap;spacingTop=3;" vertex="1" parent="S0uWu8Ou7XAk0CnYKz6p-11">
          <mxGeometry width="200" height="16" as="geometry" />
        </mxCell>
        <mxCell id="S0uWu8Ou7XAk0CnYKz6p-13" value="pressure" style="html=1;align=center;spacing=0;verticalAlign=middle;strokeColor=none;fillColor=none;whiteSpace=wrap;fontStyle=1" vertex="1" parent="S0uWu8Ou7XAk0CnYKz6p-11">
          <mxGeometry y="16" width="200" height="18" as="geometry" />
        </mxCell>
        <mxCell id="S0uWu8Ou7XAk0CnYKz6p-14" value="" style="line;strokeWidth=0.25;fillColor=none;align=left;verticalAlign=middle;spacingTop=-1;spacingLeft=3;spacingRight=3;rotatable=0;labelPosition=right;points=[];portConstraint=eastwest;" vertex="1" parent="S0uWu8Ou7XAk0CnYKz6p-11">
          <mxGeometry y="34" width="200" height="8" as="geometry" />
        </mxCell>
        <mxCell id="S0uWu8Ou7XAk0CnYKz6p-15" value="text=&quot;The system shall measure water temperature&quot;" style="html=1;align=left;spacing=0;verticalAlign=middle;strokeColor=none;fillColor=none;whiteSpace=wrap;spacingLeft=10;" vertex="1" parent="S0uWu8Ou7XAk0CnYKz6p-11">
          <mxGeometry y="42" width="200" height="28" as="geometry" />
        </mxCell>
        <mxCell id="S0uWu8Ou7XAk0CnYKz6p-16" value="Id=&quot;R-1.2.1&quot;" style="html=1;align=left;spacing=0;verticalAlign=middle;strokeColor=none;fillColor=none;whiteSpace=wrap;spacingLeft=10;" vertex="1" parent="S0uWu8Ou7XAk0CnYKz6p-11">
          <mxGeometry y="70" width="200" height="16" as="geometry" />
        </mxCell>
        <mxCell id="S0uWu8Ou7XAk0CnYKz6p-17" value="" style="html=1;align=center;spacing=0;verticalAlign=middle;strokeColor=none;fillColor=none;whiteSpace=wrap;" vertex="1" parent="S0uWu8Ou7XAk0CnYKz6p-11">
          <mxGeometry y="86" width="200" as="geometry" />
        </mxCell>
        <mxCell id="S0uWu8Ou7XAk0CnYKz6p-18" value="&amp;lt;&amp;lt;requirement&amp;gt;&amp;gt;&lt;br&gt;Display data" style="shape=rect;html=1;whiteSpace=wrap;align=center;" vertex="1" parent="1">
          <mxGeometry x="564" y="190" width="120" height="60" as="geometry" />
        </mxCell>
        <mxCell id="S0uWu8Ou7XAk0CnYKz6p-19" value="&amp;lt;&amp;lt;deriveReq&amp;gt;&amp;gt;" style="endArrow=open;html=1;edgeStyle=none;endSize=12;dashed=1;rounded=0;" edge="1" parent="1" target="S0uWu8Ou7XAk0CnYKz6p-18">
          <mxGeometry relative="1" as="geometry">
            <mxPoint x="443.9999999999998" y="220" as="sourcePoint" />
          </mxGeometry>
        </mxCell>
      </root>
    </mxGraphModel>
  </diagram>
</mxfile>
